<svg id="Livello_1" data-name="Livello 1" xmlns="http://www.w3.org/2000/svg" viewBox="0 0 681.18 681.18"><defs><style>.cls-1{fill:#e2effa;}.cls-2{fill:#1f4380;}.cls-3{fill:#335b97;}.cls-4{fill:#4982be;}</style></defs><rect class="cls-1" y="-1.99" width="681.18" height="681.18"/><path class="cls-2" d="M279,487.57H166.46a15.62,15.62,0,0,1-10.85-4c-3.74-3.54-5.06-8.81-3.64-14.46l28.65-113.75c2.49-9.86,12.34-17.59,22.43-17.59h112.5a15.62,15.62,0,0,1,10.85,4c3.74,3.54,5.06,8.81,3.64,14.46L301.39,470C298.9,479.84,289.05,487.57,279,487.57ZM203.05,342.33c-7.14,0-14.77,6.37-16.67,13.9L157.73,470c-1.07,4.24-.17,8.24,2.41,10.68a9,9,0,0,0,6.32,2.34H279c7.14,0,14.77-6.37,16.67-13.9l28.65-113.75c1.07-4.24.17-8.24-2.42-10.68a9,9,0,0,0-6.31-2.34Z"/><path class="cls-3" d="M357.34,457.44H215a21.82,21.82,0,0,1-15.16-5.6c-5.09-4.81-6.91-11.92-5-19.51l36.26-143.95c3.31-13.14,16.58-23.44,30.21-23.44H403.64a21.82,21.82,0,0,1,15.16,5.6c5.09,4.81,6.91,11.92,5,19.51L387.54,434C384.23,447.14,371,457.44,357.34,457.44ZM261.26,273.62c-8.21,0-17,7.52-19.27,16.43L205.72,434c-1.24,5-.25,9.56,2.67,12.32a9.2,9.2,0,0,0,6.56,2.44H357.34c8.19,0,17-7.52,19.26-16.43l36.27-143.95c1.25-5,.25-9.56-2.67-12.33a9.23,9.23,0,0,0-6.56-2.43Z"/><path class="cls-4" d="M444.5,430.84H268.72c-8.06,0-15.34-2.68-20.5-7.56-6.71-6.35-9.14-15.67-6.64-25.56L286.35,220c4.29-17,21.65-30.37,39.53-30.37H501.67c8.06,0,15.33,2.68,20.49,7.56,6.71,6.35,9.14,15.67,6.65,25.56L484,400.47C479.75,417.5,462.38,430.84,444.5,430.84ZM325.88,203.91c-7.94,0-18.74,7.73-21.53,18.84L259.57,400.47c-1.41,5.6-.35,10.73,2.82,13.74a8.8,8.8,0,0,0,6.33,2.35H444.5c7.94,0,18.74-7.73,21.54-18.84L510.81,220c1.41-5.6.36-10.73-2.82-13.74a8.76,8.76,0,0,0-6.32-2.35Z"/></svg>