<svg id="Livello_1" data-name="Livello 1" xmlns="http://www.w3.org/2000/svg" viewBox="0 0 681.18 681.18"><defs><style>.cls-1{fill:#1f4380;}.cls-2{fill:#335b97;}.cls-3{fill:#4982be;}</style></defs><path class="cls-1" d="M262.05,530.44H118.67a19.87,19.87,0,0,1-13.82-5.11c-4.77-4.5-6.46-11.22-4.64-18.43l36.51-145c3.17-12.57,15.72-22.42,28.58-22.42H308.68a19.87,19.87,0,0,1,13.82,5.11c4.77,4.51,6.46,11.22,4.64,18.43L290.63,508C287.46,520.59,274.91,530.44,262.05,530.44ZM165.3,345.34c-9.09,0-18.82,8.12-21.24,17.72L107.55,508c-1.37,5.41-.22,10.5,3.07,13.61a11.43,11.43,0,0,0,8,3H262.05c9.09,0,18.82-8.12,21.24-17.72l36.51-145c1.37-5.41.22-10.5-3.07-13.61a11.47,11.47,0,0,0-8.05-3Z"/><path class="cls-2" d="M361.93,492H180.47c-7.6,0-14.46-2.53-19.32-7.13-6.49-6.14-8.81-15.2-6.38-24.86L201,276.59c4.22-16.75,21.13-29.87,38.49-29.87H420.94c7.6,0,14.47,2.53,19.33,7.14,6.48,6.13,8.81,15.19,6.37,24.85L400.42,462.17C396.2,478.92,379.3,492,361.93,492ZM239.48,257.77c-10.45,0-21.69,9.59-24.55,20.94L168.71,462.17c-1.59,6.32-.32,12.19,3.4,15.71a11.73,11.73,0,0,0,8.36,3.11H361.93c10.45,0,21.7-9.59,24.56-20.94L432.7,276.59c1.6-6.32.32-12.19-3.39-15.71a11.76,11.76,0,0,0-8.37-3.11Z"/><path class="cls-3" d="M473,458.15H249c-10.27,0-19.54-3.42-26.11-9.64-8.56-8.1-11.65-20-8.48-32.57l57.06-226.5c5.47-21.71,27.6-38.71,50.39-38.71h224c10.26,0,19.54,3.43,26.11,9.64,8.56,8.1,11.65,20,8.47,32.57l-57.05,226.5C517.94,441.15,495.81,458.15,473,458.15ZM321.85,168.93c-10.12,0-23.88,9.86-27.45,24l-57.06,226.5c-1.8,7.14-.46,13.68,3.59,17.51a11.15,11.15,0,0,0,8.06,3H473c10.12,0,23.88-9.86,27.45-24l57-226.5c1.8-7.14.46-13.68-3.58-17.5a11.15,11.15,0,0,0-8.06-3Z"/></svg>